<?xml version="1.0" encoding="utf-8" ?><svg xmlns="http://www.w3.org/2000/svg" xmlns:xlink="http://www.w3.org/1999/xlink" width="1707" height="1707" viewBox="0 0 1707 1707"><path fill="#B03935" transform="matrix(3.65525 0 0 3.65525 0 1.52588e-05)" d="M416.38 375.009L416.81 375.121C416.399 378.319 399.464 395.273 396.169 398.453C364.488 429.227 324.725 450.38 281.501 459.452C275.196 460.748 267.042 462.483 260.633 462.884C257.749 463.065 252.501 460.269 249.658 459.068C230.941 451.166 213.843 439.555 199.938 424.638C192.825 417.364 180.613 400.29 176.73 390.956C177.186 391.168 177.647 391.368 178.113 391.557C182.3 393.266 189.575 395.335 194.023 396.455C225.052 404.068 257.619 402.567 287.815 392.13C293.276 390.253 299.254 387.691 304.526 385.291C307.79 383.806 311.291 381.577 314.582 380.236L314.886 380.114C317.799 380.26 321.212 381.388 324.077 382.077C349.183 388.116 375.489 387.835 400.36 380.73C405.989 379.122 410.936 377.019 416.38 375.009Z"/><path fill="#ACCD4D" transform="matrix(3.65525 0 0 3.65525 0 1.52588e-05)" d="M416.378 135.817C416.16 136.447 415.987 138.225 415.927 138.93C414.477 155.696 408.991 171.622 401.118 186.418C400.627 187.342 398.994 190.8 398.264 191.236C397.485 190.417 393.366 177.674 392.474 175.301C388.01 163.421 383.054 153.309 376.129 142.683C365.059 125.719 351.023 110.891 334.692 98.9078C332.147 97.0941 329.542 95.3661 326.881 93.7269C314.964 86.4433 318.223 88.726 313.418 75.8801C312.528 73.5446 311.558 71.2408 310.509 68.9727C299.624 45.2311 282.578 24.8388 261.143 9.91642C258.036 7.7433 254.426 5.69263 251.167 3.69137L251.092 3.34363C251.942 2.98066 254.826 3.24245 255.916 3.29515C259.17 4.12825 264.847 4.09294 268.567 4.64414C316.809 11.7908 361.56 34.9636 396.621 68.6342C404.711 76.4035 409.514 79.8588 412.537 91.0549C416.47 105.622 417.326 120.833 416.378 135.817Z"/><path fill="#53B089" transform="matrix(3.65525 0 0 3.65525 0 1.52588e-05)" d="M219.578 2.6055C222.977 2.0369 226.466 2.38596 229.685 3.61665C232.551 4.69482 235.682 6.36889 238.496 7.76237C260.138 18.4775 278.641 35.4275 292.042 55.4417C297.648 63.8135 301.362 72.6556 305.415 81.6865C296.076 78.2286 287.747 74.5767 278.001 71.8112C244.179 62.2142 207.003 64.1599 174.219 76.7862C172.689 77.3757 169.83 78.8909 168.413 78.1484C159.955 74.8466 152.66 72.0243 143.746 69.7322C123.296 64.4518 101.923 63.8142 81.1941 67.866C77.656 68.5468 73.3812 69.3567 69.9595 70.3964C70.1559 70.1354 70.3593 69.8798 70.5695 69.6298C71.7172 68.2594 74.385 65.7521 75.7165 64.4769C82.3796 58.1755 89.4401 52.3079 96.8543 46.9104C126.429 24.961 160.937 10.6029 197.352 5.09519C204.147 4.02911 212.687 3.21563 219.578 2.6055Z"/><path fill="#433C7C" transform="matrix(3.65525 0 0 3.65525 0 1.52588e-05)" d="M72.7437 180.971L73.061 181.05C73.4383 182.001 70.7436 189.755 70.2397 191.647C62.4397 221.852 63.3764 253.651 72.9408 283.345C74.1151 286.979 75.4624 290.815 76.6986 294.336C77.4732 296.542 81.3264 304.517 81.323 305.86C81.3176 308.037 79.4839 315.328 78.9587 317.945C78.156 321.91 77.5403 325.911 77.1133 329.934C73.9433 361.052 80.7952 392.369 96.6704 419.32C86.0522 413.042 74.7609 401.949 66.1026 393.164C49.454 375.74 38.2752 359.802 27.2551 338.38C16.8448 318.011 9.51847 296.208 5.51618 273.686C4.44393 267.929 2.58552 260.744 4.55777 255.079C16.2264 221.563 41.5098 197.004 72.7437 180.971Z"/><path fill="#117D80" transform="matrix(3.65525 0 0 3.65525 0 1.52588e-05)" d="M102.639 75.1052C103.759 74.9763 105.091 75.0107 106.237 74.9783C121.055 74.5585 135.602 76.7537 149.665 81.4248C152.155 82.2517 154.665 83.2935 157.197 83.8355L157.551 83.9088C154.312 85.2812 146.362 89.992 143.4 91.8725C121.279 105.922 102.683 124.867 89.0483 147.246C87.0557 150.569 85.164 153.952 83.3759 157.39C82.357 159.349 79.0141 166.882 77.6418 167.847C73.3907 170.835 66.59 173.261 61.7516 175.937C47.959 183.595 35.4361 193.343 24.6283 204.835C18.7522 210.832 13.5527 217.456 9.12317 224.589C6.76934 228.347 4.29488 233.052 1.80025 236.576L1.54416 236.934C1.22051 222.22 3.56446 201.819 6.45991 187.297C12.1798 159.997 22.6944 133.928 37.5156 110.298C40.5776 105.324 43.9081 100.554 47.2833 95.7896C48.9329 93.4611 50.5322 90.9427 52.4223 88.8034C58.0579 82.4251 79.0361 77.793 87.4636 76.5213C92.5108 75.7596 97.5495 75.4202 102.639 75.1052Z"/><path fill="#E76B2D" transform="matrix(3.65525 0 0 3.65525 0 1.52588e-05)" d="M465.628 233.621L465.979 234.029C466.264 244.183 463.947 264.915 462.05 274.905C457.761 298.465 449.842 321.217 438.576 342.349C435.222 348.601 432.962 354.206 427.046 358.119C399.645 376.246 362.657 380.091 331.051 373.987C330.09 373.74 329.356 373.671 328.665 372.994C328.54 371.595 331.72 370.077 332.939 369.173C356.563 351.637 376.854 327.902 388.512 300.757C388.913 299.824 390.49 296.191 391.237 295.699C393.51 294.2 400.676 291.569 402.989 290.51C405.696 289.248 408.363 287.902 410.987 286.475C428.871 276.841 444.446 263.433 456.631 247.179C459.857 242.865 462.415 237.885 465.408 233.91L465.628 233.621Z"/><path fill="#433C7C" transform="matrix(3.65525 0 0 3.65525 0 1.52588e-05)" d="M88.3941 318.868C89.4004 319.486 95.2979 329.118 96.7178 331.059C110.259 349.574 126.609 365.439 146.639 377.075C149.204 378.549 151.809 379.953 154.451 381.284C156.382 382.253 163.16 385.14 164.143 386.514C165.883 388.946 168.199 394.831 169.615 397.729C170.857 400.262 172.203 402.743 173.652 405.164C189.526 431.844 209.787 450.024 237.376 464.192L233.911 464.449C226.012 464.168 220.226 464.177 212.034 463.41C189.696 461.171 167.775 455.854 146.893 447.611C141.935 445.623 122.941 437.796 119.656 434.624C112.377 427.595 99.3436 405.131 95.6278 395.926C87.5251 375.855 84.3775 353.778 86.3514 332.38C86.6599 329.036 87.2882 321.619 88.3941 318.868Z"/><path fill="#B03935" transform="matrix(3.65525 0 0 3.65525 0 1.52588e-05)" d="M163.07 292.3C164.635 292.918 170.011 299.285 171.977 301.071C183.928 312.065 198.663 319.572 214.582 322.777C218.95 323.622 222.946 323.945 227.389 324.349C229.76 326.875 231.972 329.868 234.539 332.554C254.221 353.141 273.825 364.553 299.817 375.075C295.759 377.306 291.644 378.781 287.309 380.356C286.169 380.871 280.333 382.76 279.03 383.171C249.375 392.527 214.892 392.223 185.404 382.235C180.563 380.595 175.359 379.049 170.812 376.702C169.057 373.162 168.275 369.682 167.123 365.963C161.264 347.049 159.647 326.6 161.194 306.921C161.554 302.344 161.981 296.8 163.07 292.3Z"/><path fill="#ACCD4D" transform="matrix(3.65525 0 0 3.65525 0 1.52588e-05)" d="M228.764 77.6178C253.851 77.2328 275.719 80.7518 298.628 91.3683C311.844 97.4924 310.236 95.5782 312.665 109.664C316.897 134.206 314.812 155.013 309.172 178.915C306.27 176.905 303.702 172.952 301.162 170.35C297.545 166.645 293.556 162.885 289.488 159.7C279.646 152.203 269.795 147.875 257.919 144.46C255.486 143.761 247.576 142.934 246.472 141.792C243.125 138.071 240.447 133.633 237.262 129.645C226.169 115.756 212.768 103.842 198.127 93.8004C193.746 90.7959 188.683 88.2536 184.45 85.0661C198.776 80.2763 213.713 78.0719 228.764 77.6178Z"/><path fill="#F89F36" transform="matrix(3.65525 0 0 3.65525 0 1.52588e-05)" d="M321.626 104.086C324.448 105.058 334.158 112.913 336.623 114.959C359.717 134.353 376.578 160.127 385.098 189.055C386.559 194.115 388.22 199.851 388.709 205.078C387.604 207.414 384.979 210.168 383.286 212.182C375.28 221.697 366.883 229.315 357.126 236.937C348.649 243.934 333.093 253.136 322.889 256.857C326.196 236.979 327.489 223.026 320.777 203.146C319.253 198.632 317.256 194.928 315.587 190.594C317.349 183.724 319.454 177.336 320.969 170.276C325.908 147.254 324.845 127.054 321.626 104.086Z"/><path fill="#F89F36" transform="matrix(3.65525 0 0 3.65525 0 1.52588e-05)" d="M425.516 103.89C427.327 105.146 432.983 115.49 434.248 117.627C449.242 142.962 459.313 171.412 463.462 200.563C463.918 203.769 464.643 207.645 464.482 210.932C463.986 214.19 461.542 219.679 460.013 222.776C450.476 242.102 436.685 257.43 419.383 270.045C413.897 274.068 402.281 280.862 395.865 282.886L395.888 282.669C396.155 279.894 398.326 273.022 399.029 269.722C400.847 260.758 402.022 251.675 402.544 242.543C403.081 232.17 402.716 221.847 401.33 211.548C401.22 210.731 400.674 206.217 400.922 205.795C405.053 198.769 409.775 192.12 413.213 184.662C421.991 165.632 426.515 144.919 426.472 123.963C426.438 117.201 425.647 110.439 425.516 103.89Z"/><path fill="#117BAA" transform="matrix(3.65525 0 0 3.65525 0 1.52588e-05)" d="M133.165 165.359C134.976 165.172 139.232 165.25 141.115 165.266C150.604 165.348 159.256 166.135 168.549 167.932C159.973 175.52 150.007 192.24 146.763 203.299C143.146 215.627 146.275 211.576 136.221 219.637C133.747 221.643 131.339 223.73 129.003 225.894C115.524 238.491 103.284 255.124 94.6356 271.424C92.0727 276.616 88.6993 284.046 87.0836 289.564C85.8504 286.706 84.75 283.792 83.786 280.832C74.0708 251.208 73.6461 219.321 82.5688 189.448C83.994 184.69 85.6003 178.776 87.8106 174.411C96.9539 169.415 122.662 166.034 133.165 165.359Z"/><path fill="#53B089" transform="matrix(3.65525 0 0 3.65525 0 1.52588e-05)" d="M171.201 90.0001C173.8 90.0397 178.466 93.2367 180.892 94.5574C196.934 103.474 211.39 114.981 223.678 128.613C227.492 132.906 230.569 137.456 234.069 141.47C217.639 141.535 205.252 143.838 190.518 151.761C186.272 154.044 181.548 157.547 177.863 159.473L177.616 159.599C173.937 159.285 169.301 158.282 165.58 157.634C161.316 156.892 157.01 156.414 152.688 156.203C130.496 154.818 114.908 156.674 93.3913 162.413C95.1229 158.672 99.3933 151.94 101.743 148.336C119.007 121.852 142.461 102.844 171.201 90.0001Z"/><path fill="#E76B2D" transform="matrix(3.65525 0 0 3.65525 0 1.52588e-05)" d="M375.46 300.574L375.937 300.539L376.147 300.862C376.011 301.583 375.801 302.289 375.522 302.968C374.845 304.654 372.315 308.902 371.265 310.698C358.835 331.633 341.924 349.556 321.747 363.181C319.251 364.831 314.419 368.042 311.777 369.178C302.897 367.61 283.41 357.854 275.357 352.97C270.93 350.239 266.624 347.318 262.45 344.215C256.235 340.043 245.055 330.226 240.493 324.323C256.468 322.495 269.223 319.07 283.126 310.474C286.835 308.18 291.811 303.618 295.174 302.372C317.272 307.052 340.063 307.449 362.311 303.541C366.675 302.771 371.105 301.52 375.46 300.574Z"/><path fill="#385496" transform="matrix(3.65525 0 0 3.65525 0 1.52588e-05)" d="M141.446 227.973L141.861 228.103C142.264 229.43 142.23 241.324 142.687 244.375C144.137 254.056 146.029 262.062 150.181 271.04C151.744 274.42 153.98 278.003 155.373 281.326L155.507 281.649C155.312 283.368 154.649 286.219 154.319 288.009C153.474 292.377 152.794 296.776 152.28 301.195C149.889 322.635 151.413 344.25 157.077 365.042C157.628 367.065 158.109 368.935 158.88 370.886C151.424 367.453 138.351 358.21 132.107 352.811C115.868 338.819 101.864 322.272 92.7491 302.675C91.8715 300.788 95.0498 293.486 95.9077 291.267C104.065 270.627 116.391 251.891 132.114 236.229C134.689 233.689 138.495 229.994 141.446 227.973Z"/><path fill="#ACCD4D" transform="matrix(3.65525 0 0 3.65525 0 1.52588e-05)" d="M276.128 184.379C276.34 184.335 276.708 184.377 276.947 184.389L277.146 184.858C277.051 186.911 275.665 190.375 275.083 192.488C274.223 195.681 273.515 198.913 272.962 202.174C269.155 224.159 270.333 248.085 254.156 265.769C245.743 274.966 233.711 280.147 221.58 282.439C217.355 283.237 212.727 283.34 208.421 283.534C215.672 259.463 231.788 231.786 247.723 212.593C246.184 213.342 245.407 213.833 243.969 214.78C240.345 217.465 236.498 221.3 233.203 224.402C224.122 232.953 216.647 242.732 210.184 253.379C208.295 256.49 206.388 260.421 204.663 263.704C202.859 267.137 200.437 271.405 199.042 274.956C195.906 265.635 194.51 262.663 194.018 252.268C192.087 211.432 240.505 184.881 276.128 184.379Z"/><path fill="#F89F36" transform="matrix(3.65525 0 0 3.65525 0 1.52588e-05)" d="M390.533 219.173L390.953 219.492C391.713 222.749 391.498 226.396 391.504 229.722C391.523 239.991 391.208 249.858 389.37 260.002C388.425 265.215 383.953 286.817 380.261 289.198C377.889 290.728 374.184 291.205 371.424 291.901C351.032 297.045 328.417 298.159 307.691 294.424C306.33 294.244 304.856 294.359 304.183 293.084C304.369 292.094 305.277 291.331 305.875 290.519C310.237 284.596 314.279 278.588 317.054 271.742C317.616 270.356 318.965 268.624 320.386 268.175C325.297 266.624 329.798 264.668 334.475 262.504C338.205 260.771 341.836 258.831 345.349 256.693C359.045 248.531 370.4 239.15 381.723 228.06C384.689 225.156 387.564 221.965 390.533 219.173Z"/></svg>